<svg xmlns="http://www.w3.org/2000/svg" version="1.1" xmlns:xlink="http://www.w3.org/1999/xlink" xmlns:svgjs="http://svgjs.dev/svgjs" width="1500" height="1500" viewBox="0 0 1500 1500"><rect width="1500" height="1500" fill="#ffffff"></rect><g transform="matrix(0.6666666666666666,0,0,0.6666666666666666,249.39393939393938,584.1109979836482)"><svg viewBox="0 0 396 131" data-background-color="#ffffff" preserveAspectRatio="xMidYMid meet" height="496" width="1500" xmlns="http://www.w3.org/2000/svg" xmlns:xlink="http://www.w3.org/1999/xlink"><g id="tight-bounds" transform="matrix(1,0,0,1,0.2400000000000091,0.22013890365550992)"><svg viewBox="0 0 395.52 130.55972219268895" height="130.55972219268895" width="395.52"><g><svg viewBox="0 0 657.4630553391389 217.02617783433067" height="130.55972219268895" width="395.52"><g transform="matrix(1,0,0,1,259.96545533913894,59.27912792001569)"><svg viewBox="0 0 397.4975999999999 98.46792199429929" height="98.46792199429929" width="397.4975999999999"><g id="textblocktransform"><svg viewBox="0 0 397.4975999999999 98.46792199429929" height="98.46792199429929" width="397.4975999999999" id="textblock"><g><rect width="397.4975999999999" height="5.467160521951102" x="0" y="67.06465663724228" fill="#000000" opacity="1" stroke-width="0" stroke="transparent" fill-opacity="1" class="rect-qz-0" data-fill-palette-color="primary" rx="1%" id="qz-0" data-palette-color="#000000"></rect></g><g transform="matrix(1,0,0,1,0.9887999999999693,0)"><svg viewBox="0 0 395.52 60.62428429462973" height="60.62428429462973" width="395.52"><g transform="matrix(1,0,0,1,0,0)"><svg width="395.52" viewBox="1.6944445555599998 -36.9 314.43180544444 48.199999999999996" height="60.62428429462973" data-palette-color="#000000"><path d="M16.25 0.25L8.6 0Q7.2 0 5.18 0.08 3.15 0.15 1.75 0.25L1.75 0.25Q1.6-0.7 1.85-1.5L1.85-1.5Q2.85-1.65 3.83-1.9 4.8-2.15 5.85-2.5L5.85-2.5 5.85-32.5 2-33.5Q1.85-34.45 2.25-35.25L2.25-35.25Q3.6-35.2 5.28-35.1 6.95-35 8.35-35L8.35-35 15.05-35.05Q21.15-35.1 24.33-33.08 27.5-31.05 27.5-27L27.5-27Q27.5-24.8 26.45-23.05 25.4-21.3 23.65-20.2 21.9-19.1 19.75-18.75L19.75-18.75 19.75-18.65Q22.4-18.35 24.65-17.4 26.9-16.45 28.28-14.58 29.65-12.7 29.65-9.5L29.65-9.5Q29.65-6.65 28.53-4.78 27.4-2.9 25.5-1.8 23.6-0.7 21.2-0.23 18.8 0.25 16.25 0.25L16.25 0.25ZM11.1-19.6L14-19.6Q17.15-19.6 18.93-20.48 20.7-21.35 21.43-22.98 22.15-24.6 22.15-26.8L22.15-26.8Q22.15-28.55 21.48-29.88 20.8-31.2 18.95-31.95 17.1-32.7 13.6-32.7L13.6-32.7Q13.05-32.7 12.43-32.68 11.8-32.65 11.1-32.6L11.1-32.6 11.1-19.6ZM11.1-2.25L15.65-2Q20.4-2 22.23-4 24.05-6 24.05-9.55L24.05-9.55Q24.05-13.55 22-15.33 19.95-17.1 14.65-17.1L14.65-17.1 11.1-17.1 11.1-2.25ZM33.6-12.5L33.6-12.5Q33.6-16.4 35.12-19.45 36.65-22.5 39.5-24.25 42.35-26 46.2-26L46.2-26Q50.1-26 52.92-24.25 55.75-22.5 57.27-19.45 58.8-16.4 58.8-12.5L58.8-12.5Q58.8-8.5 57.27-5.45 55.75-2.4 52.92-0.7 50.1 1 46.2 1L46.2 1Q42.35 1 39.5-0.7 36.65-2.4 35.12-5.45 33.6-8.5 33.6-12.5ZM53.4-11.8L53.4-11.8Q53.4-15.15 52.65-17.88 51.9-20.6 50.3-22.23 48.7-23.85 46.1-23.85L46.1-23.85Q43.45-23.85 41.87-22.25 40.3-20.65 39.65-18 39-15.35 39-12.15L39-12.15Q39-9.25 39.75-6.73 40.5-4.2 42.12-2.68 43.75-1.15 46.3-1.15L46.3-1.15Q49-1.15 50.55-2.65 52.1-4.15 52.75-6.6 53.4-9.05 53.4-11.8ZM70.34-25.05L70.19-21.65 70.25-21.6Q72.64-24 75.19-24.9 77.75-25.8 79.64-25.8L79.64-25.8Q82.89-25.8 84.77-23.95 86.64-22.1 86.64-18.55L86.64-18.55 86.69-2.5 90.19-1.5Q90.34-0.55 89.94 0.25L89.94 0.25Q88.59 0.15 87.09 0.08 85.59 0 84.19 0L84.19 0Q82.8 0 81.25 0.08 79.69 0.15 78.3 0.25L78.3 0.25Q78.14-0.7 78.39-1.5L78.39-1.5Q79.39-1.7 80.17-1.95 80.94-2.2 81.69-2.5L81.69-2.5 81.69-16.3Q81.69-19.7 80.64-21 79.59-22.3 77.3-22.3L77.3-22.3Q75.44-22.3 73.69-21.58 71.94-20.85 70.59-19.3L70.59-19.3 70.59-2.5 73.94-1.5Q74.09-0.55 73.69 0.25L73.69 0.25Q72.34 0.15 70.92 0.08 69.5 0 68.09 0L68.09 0Q66.69 0 65.05 0.08 63.39 0.15 61.99 0.25L61.99 0.25Q61.84-0.7 62.09-1.5L62.09-1.5Q62.99-1.75 63.89-1.98 64.8-2.2 65.59-2.5L65.59-2.5 65.59-22 61.45-22.4Q61.3-23.4 61.7-24.15L61.7-24.15Q63.55-24.45 65.3-24.8 67.05-25.15 68.64-25.5L68.64-25.5Q69.5-25.45 70.34-25.05L70.34-25.05ZM103.54-8.35L103.54-8.35Q102.64-8.35 101.69-8.47 100.74-8.6 99.74-8.9L99.74-8.9Q99.24-8.15 99.04-7.7 98.84-7.25 98.84-6.95L98.84-6.95Q98.84-6.5 99.19-6.05 99.54-5.6 101.04-5.18 102.54-4.75 105.94-4.35L105.94-4.35Q109.29-3.95 111.54-3.3 113.79-2.65 114.94-1.25 116.09 0.15 116.09 2.75L116.09 2.75Q116.09 5 114.99 6.6 113.89 8.2 112.04 9.25 110.19 10.3 107.99 10.8 105.79 11.3 103.54 11.3L103.54 11.3Q99.74 11.3 97.37 10.4 94.99 9.5 93.87 7.98 92.74 6.45 92.74 4.7L92.74 4.7Q92.74 2.9 93.74 1.13 94.74-0.65 97.44-1.75L97.44-1.75Q95.79-3.2 95.79-5.05L95.79-5.05Q95.79-6.7 96.42-7.78 97.04-8.85 97.84-9.6L97.84-9.6Q95.84-10.6 94.49-12.33 93.14-14.05 93.14-16.65L93.14-16.65Q93.14-19.05 94.09-20.7 95.04-22.35 96.59-23.35 98.14-24.35 99.97-24.8 101.79-25.25 103.54-25.25L103.54-25.25Q104.74-25.25 106.04-25.05 107.34-24.85 108.54-24.35L108.54-24.35 115.19-28.45Q115.59-28.25 115.94-27.55 116.29-26.85 116.49-26.08 116.69-25.3 116.59-24.8L116.59-24.8Q115.24-24.35 113.59-23.98 111.94-23.6 110.24-23.5L110.24-23.5Q111.84-22.55 112.89-20.85 113.94-19.15 113.94-16.65L113.94-16.65Q113.94-14.45 112.97-12.88 111.99-11.3 110.39-10.3 108.79-9.3 106.99-8.83 105.19-8.35 103.54-8.35ZM103.54-10.25L103.54-10.25Q106.09-10.25 107.74-12.08 109.39-13.9 109.39-16.75L109.39-16.75Q109.39-19.85 107.74-21.6 106.09-23.35 103.54-23.35L103.54-23.35Q100.99-23.35 99.34-21.6 97.69-19.85 97.69-16.75L97.69-16.75Q97.69-13.9 99.34-12.08 100.99-10.25 103.54-10.25ZM104.29-0.35L104.29-0.35Q103.39-0.5 102.02-0.65 100.64-0.8 99.24-1.15L99.24-1.15Q98.04-0.15 97.42 0.98 96.79 2.1 96.79 4L96.79 4Q96.79 6.1 98.59 7.75 100.39 9.4 103.79 9.4L103.79 9.4Q106.24 9.4 107.99 8.6 109.74 7.8 110.67 6.55 111.59 5.3 111.59 4.05L111.59 4.05Q111.59 2.55 110.57 1.7 109.54 0.85 107.87 0.38 106.19-0.1 104.29-0.35ZM140.44-22.5L132.89-13.25 140.34-2.5Q141.19-2.05 142.04-1.9 142.89-1.75 143.69-1.5L143.69-1.5Q143.84-0.55 143.44 0.25L143.44 0.25Q142.09 0.15 140.67 0.08 139.24 0 137.84 0L137.84 0Q136.44 0 134.79 0.08 133.14 0.15 131.74 0.25L131.74 0.25Q131.59-0.7 131.84-1.5L131.84-1.5 134.84-2.35 129.89-9.5 124.29-2.5 127.64-1.5Q127.79-0.55 127.39 0.25L127.39 0.25Q126.04 0.15 124.97 0.08 123.89 0 122.49 0L122.49 0Q121.09 0 119.94 0.08 118.79 0.15 117.39 0.25L117.39 0.25Q117.24-0.7 117.49-1.5L117.49-1.5Q118.49-1.65 119.44-1.85 120.39-2.05 121.09-2.5L121.09-2.5 128.44-11.65 121.04-22.5 117.19-23.5Q117.04-24.45 117.44-25.25L117.44-25.25Q118.79-25.2 120.47-25.1 122.14-25 123.54-25L123.54-25Q124.99-25 126.79-25.1 128.59-25.2 129.99-25.25L129.99-25.25Q130.14-24.3 129.89-23.5L129.89-23.5Q128.94-23.35 127.97-23.05 126.99-22.75 126.54-22.5L126.54-22.5 131.44-15.4 137.14-22.5 133.19-23.5Q133.04-24.45 133.44-25.25L133.44-25.25Q134.79-25.2 136.14-25.1 137.49-25 138.89-25L138.89-25Q140.34-25 141.54-25.1 142.74-25.2 144.14-25.25L144.14-25.25Q144.29-24.3 144.04-23.5L144.04-23.5Q143.09-23.3 142.17-23.1 141.24-22.9 140.44-22.5L140.44-22.5ZM167.09-11.1L167.09-11.1Q167.09-8.5 166.01-6.3 164.94-4.1 163.09-2.5 161.24-0.9 158.91 0 156.59 0.9 154.09 0.9L154.09 0.9Q151.99 0.9 149.94 0.33 147.89-0.25 146.04-1.5L146.04-1.5Q146.29-5.65 147.24-9.75L147.24-9.75Q147.54-9.75 148.09-9.68 148.64-9.6 148.99-9.45L148.99-9.45 149.94-2.9Q152.19-1.8 154.49-1.8L154.49-1.8Q156.54-1.8 158.24-2.75 159.94-3.7 160.96-5.58 161.99-7.45 161.99-10.15L161.99-10.15Q161.99-14.55 159.49-16.4 156.99-18.25 152.74-18.25L152.74-18.25Q151.54-18.25 150.26-18.13 148.99-18 147.54-17.75L147.54-17.75 147.54-35 164.94-35Q164.99-34.8 165.01-34.5 165.04-34.2 165.04-33.85L165.04-33.85Q165.04-33.1 164.86-32.23 164.69-31.35 164.24-30.5L164.24-30.5 150.59-30.5 150.39-20.8Q153.14-21.45 155.84-21.45L155.84-21.45Q159.14-21.45 161.69-20.2 164.24-18.95 165.66-16.63 167.09-14.3 167.09-11.1ZM180.74-34.5L180.74-2.5 185.64-1.5Q185.78-0.55 185.39 0.25L185.39 0.25Q184.49 0.2 183.16 0.15 181.84 0.1 180.53 0.05 179.24 0 178.28 0L178.28 0Q177.34 0 176.03 0.05 174.74 0.1 173.44 0.15 172.14 0.2 171.19 0.25L171.19 0.25Q171.03-0.7 171.28-1.5L171.28-1.5Q172.39-1.7 173.46-1.85 174.53-2 175.74-2.5L175.74-2.5 175.74-30.55 170.28-31.05Q170.14-32.05 170.53-32.8L170.53-32.8Q175.19-33.7 178.74-35.05L178.74-35.05Q179.69-35 180.74-34.5L180.74-34.5ZM199.68 0.25L199.68 0.25Q199.53-0.7 199.78-1.5L199.78-1.5Q200.83-1.65 201.83-1.9 202.83-2.15 203.78-2.5L203.78-2.5 203.78-10.2 188.68-10.2Q188.53-10.6 188.41-11.03 188.28-11.45 188.33-11.95L188.33-11.95 205.03-36Q205.88-36.4 206.68-36.63 207.48-36.85 208.53-36.9L208.53-36.9 208.53-13.6 213.78-13.6Q213.93-12.9 213.83-11.95 213.73-11 213.28-10.2L213.28-10.2 208.53-10.2 208.53-2.5 212.63-1.5Q212.78-0.55 212.38 0.25L212.38 0.25Q211.03 0.15 209.36 0.08 207.68 0 206.28 0L206.28 0Q204.88 0 202.98 0.08 201.08 0.15 199.68 0.25ZM200.93-25.3L192.63-13.6 203.78-13.6 203.78-24.7 204.03-29.9 203.93-29.9 200.93-25.3ZM217.18-2.5L217.18-2.5Q217.18-3.15 217.71-3.78 218.23-4.4 219.01-4.85 219.78-5.3 220.53-5.3L220.53-5.3Q221.88-5.3 222.68-4.17 223.48-3.05 223.48-2.05L223.48-2.05Q223.48-1.1 222.41-0.18 221.33 0.75 220.08 0.75L220.08 0.75Q218.88 0.75 218.03-0.38 217.18-1.5 217.18-2.5ZM240.68 0.35L234.43 0Q233.03 0 231 0.08 228.98 0.15 227.58 0.25L227.58 0.25Q227.43-0.7 227.68-1.5L227.68-1.5Q228.73-1.65 229.73-1.9 230.73-2.15 231.68-2.5L231.68-2.5 231.68-32.5 227.83-33.5Q227.68-34.45 228.08-35.25L228.08-35.25Q229.43-35.2 231.1-35.1 232.78-35 234.18-35L234.18-35 240.68-35.2Q247.78-35.2 252.13-32.98 256.48-30.75 258.45-26.85 260.43-22.95 260.43-18L260.43-18Q260.43-12.85 258.78-9.33 257.13-5.8 254.33-3.68 251.53-1.55 248-0.6 244.48 0.35 240.68 0.35L240.68 0.35ZM236.93-32.75L236.93-2.25Q238.68-2.1 240.23-2.1L240.23-2.1Q245.63-2.1 248.85-3.83 252.08-5.55 253.48-9.08 254.88-12.6 254.88-18L254.88-18Q254.88-22.8 253.4-26.13 251.93-29.45 248.55-31.15 245.18-32.85 239.48-32.85L239.48-32.85Q238.88-32.85 238.25-32.83 237.63-32.8 236.93-32.75L236.93-32.75ZM269.93-13.5L269.93-12.5Q269.93-7.45 271.95-4.67 273.98-1.9 277.48-1.9L277.48-1.9Q279.03-1.9 280.08-2.08 281.13-2.25 282.15-2.75 283.18-3.25 284.48-4.15L284.48-4.15Q285.28-3.8 285.38-2.95L285.38-2.95Q283.83-1.15 281.68-0.15 279.53 0.85 277.33 0.85L277.33 0.85Q273.53 0.85 270.68-0.75 267.83-2.35 266.23-5.35 264.63-8.35 264.63-12.5L264.63-12.5Q264.63-16.75 266.3-19.73 267.98-22.7 270.8-24.28 273.63-25.85 277.08-25.85L277.08-25.85Q281.53-25.85 283.65-22.88 285.78-19.9 285.78-15.2L285.78-15.2Q285.78-14.85 285.78-14.55 285.78-14.25 285.73-13.9L285.73-13.9 285.03-13.35 269.93-13.5ZM277.03-23.7L277.03-23.7Q275.58-23.7 274.15-22.8 272.73-21.9 271.63-20.1 270.53-18.3 270.13-15.55L270.13-15.55 281.03-16.15Q281.03-20 280.2-21.85 279.38-23.7 277.03-23.7ZM300.97 1.5L291.07-22.5 287.22-23.5Q287.07-24.45 287.47-25.25L287.47-25.25Q288.82-25.2 290.5-25.1 292.17-25 293.57-25L293.57-25Q295.02-25 296.82-25.1 298.62-25.2 300.02-25.25L300.02-25.25Q300.17-24.3 299.92-23.5L299.92-23.5Q299.02-23.3 298.15-23.1 297.27-22.9 296.47-22.5L296.47-22.5 300.77-11.5Q301.47-9.8 302-8.1 302.52-6.4 302.87-4.7L302.87-4.7 303.02-4.7Q303.42-6.15 303.8-7.53 304.17-8.9 304.67-10.35L304.67-10.35 309.42-22.5 305.47-23.5Q305.32-24.45 305.72-25.25L305.72-25.25Q307.07-25.2 308.27-25.1 309.47-25 310.87-25L310.87-25Q312.32-25 313.5-25.1 314.67-25.2 316.07-25.25L316.07-25.25Q316.22-24.3 315.97-23.5L315.97-23.5Q315.02-23.3 314.1-23.1 313.17-22.9 312.42-22.5L312.42-22.5 303.22 0.85Q302.87 1.05 302.15 1.28 301.42 1.5 300.97 1.5L300.97 1.5Z" opacity="1" transform="matrix(1,0,0,1,0,0)" fill="#000000" class="wordmark-text-0" data-fill-palette-color="primary" id="text-0"></path></svg></g></svg></g><g transform="matrix(1,0,0,1,0,78.97218950180593)"><svg viewBox="0 0 232.209792 19.495732492493346" height="19.495732492493346" width="232.209792"><g transform="matrix(1,0,0,1,0,0)"><svg width="232.209792" viewBox="2.45 -36.41 563.4399999999999 47.309999999999995" height="19.495732492493346" data-palette-color="#89939e"><path d="M17.9 1L17.9 1Q13.7 1 10.2-1 6.7-3 4.58-6.7 2.45-10.4 2.45-15.55L2.45-15.55Q2.45-20.65 4.45-24.48 6.45-28.3 10.13-30.43 13.8-32.55 18.8-32.55L18.8-32.55Q20.6-32.55 22.53-32.2 24.45-31.85 26.1-31.03 27.75-30.2 28.78-28.85 29.8-27.5 29.8-25.5L29.8-25.5Q29.85-23.35 28.5-21.73 27.15-20.1 24.7-20.1L24.7-20.1Q23.2-20.1 22.58-20.83 21.95-21.55 22-21.9L22-21.9Q22-22.05 22.63-22.43 23.25-22.8 23.88-23.58 24.5-24.35 24.5-25.65L24.5-25.65Q24.5-27.9 23-29.23 21.5-30.55 18.75-30.55L18.75-30.55Q15.75-30.55 13.38-28.85 11-27.15 9.65-23.88 8.3-20.6 8.3-15.85L8.3-15.85Q8.3-11.85 9.73-8.58 11.15-5.3 13.73-3.38 16.3-1.45 19.7-1.45L19.7-1.45Q22.4-1.45 24.33-2.58 26.25-3.7 27.8-6.2L27.8-6.2Q28.25-7.05 29.4-6.35L29.4-6.35Q29.85-6.05 30.1-5.63 30.35-5.2 30-4.75L30-4.75Q28.1-2.35 26.4-1.13 24.7 0.1 22.7 0.55 20.7 1 17.9 1ZM45.25 0.6L45.25 0.6Q41.75 0.6 39.12-1.05 36.5-2.7 35.05-5.35 33.6-8 33.6-11L33.6-11Q33.6-13.95 34.65-16.25 35.7-18.55 37.42-20.1 39.15-21.65 41.2-22.45 43.25-23.25 45.25-23.25L45.25-23.25Q48.75-23.25 51.37-21.6 54-19.95 55.45-17.3 56.9-14.65 56.9-11.65L56.9-11.65Q56.9-8.7 55.82-6.4 54.75-4.1 53.02-2.55 51.3-1 49.25-0.2 47.2 0.6 45.25 0.6ZM45.25-1.25L45.25-1.25Q47.7-1.25 49.12-2.7 50.55-4.15 51.17-6.53 51.8-8.9 51.8-11.65L51.8-11.65Q51.8-14.3 51.15-16.5 50.5-18.7 49.05-20.05 47.6-21.4 45.25-21.4L45.25-21.4Q42.8-21.4 41.35-19.98 39.9-18.55 39.3-16.23 38.7-13.9 38.7-11.1L38.7-11.1Q38.7-8.5 39.32-6.25 39.95-4 41.4-2.63 42.85-1.25 45.25-1.25ZM71.5 0.6L71.5 0.6Q68.7 0.6 66.3-0.9 63.9-2.4 62.45-5.1 61-7.8 61-11.35L61-11.35Q61-14.45 62.47-17.18 63.95-19.9 66.57-21.58 69.2-23.25 72.55-23.25L72.55-23.25Q74.15-23.25 75.7-22.88 77.25-22.5 78.35-21.85L78.35-21.85 78.5-21.85 78.5-29.5Q78.5-30.4 78.42-31.18 78.35-31.95 77.85-32.43 77.35-32.9 75.95-32.9L75.95-32.9Q75.5-32.9 75.12-33.02 74.75-33.15 74.75-33.9L74.75-33.9Q74.75-34.65 75.55-34.8L75.55-34.8Q77.85-35.15 79.07-35.5 80.3-35.85 80.95-36.1 81.6-36.35 82.1-36.4L82.1-36.4Q82.5-36.45 82.77-36.25 83.05-36.05 83.05-35.45L83.05-35.45 83.05-4.6Q83.05-1.65 86.95-1.65L86.95-1.65Q87.5-1.65 87.65-1.38 87.8-1.1 87.8-0.85L87.8-0.85Q87.8-0.15 86.95 0L86.95 0 79 0.55Q78.65 0.55 78.6 0.25 78.55-0.05 78.55-0.45L78.55-0.45 78.55-2.45 78.4-2.45Q77.15-1.15 75.27-0.28 73.4 0.6 71.5 0.6ZM73.2-1.9L73.2-1.9Q75.1-1.9 76.35-2.68 77.6-3.45 78.5-4.4L78.5-4.4 78.5-17.6Q78.25-18.45 77.57-19.33 76.9-20.2 75.77-20.83 74.65-21.45 73.05-21.45L73.05-21.45Q70.15-21.45 68.15-18.73 66.15-16 66.15-11.1L66.15-11.1Q66.15-8.75 66.92-6.63 67.7-4.5 69.25-3.2 70.8-1.9 73.2-1.9ZM101.69 0.6L101.69 0.6Q97.84 0.6 95.22-1.05 92.59-2.7 91.29-5.45 89.99-8.2 89.99-11.45L89.99-11.45Q89.99-13.65 90.77-15.73 91.54-17.8 92.99-19.53 94.44-21.25 96.49-22.25 98.54-23.25 101.14-23.25L101.14-23.25Q105.74-23.25 108.07-20.88 110.39-18.5 110.74-14.85L110.74-14.85Q110.74-13.1 109.77-12.55 108.79-12 107.24-12L107.24-12 95.09-12Q95.09-9.1 95.89-6.83 96.69-4.55 98.42-3.23 100.14-1.9 102.99-1.9L102.99-1.9Q105.09-1.9 106.59-2.8 108.09-3.7 109.49-5.95L109.49-5.95Q109.89-6.45 110.59-6L110.59-6Q110.99-5.8 111.09-5.38 111.19-4.95 110.99-4.65L110.99-4.65Q109.44-2.2 107.09-0.8 104.74 0.6 101.69 0.6ZM95.09-13.9L95.09-13.9 103.24-13.9Q104.44-13.9 105.17-14.38 105.89-14.85 105.94-16L105.94-16Q105.94-18.15 104.77-19.83 103.59-21.5 101.14-21.5L101.14-21.5Q98.64-21.5 96.97-19.5 95.29-17.5 95.09-13.9ZM128.99 10.9L128.99 10.9Q127.54 10.9 126.26 10.25 124.99 9.6 124.24 8.53 123.49 7.45 123.49 6.2L123.49 6.2Q123.54 4.85 124.06 4.13 124.59 3.4 125.24 3.13 125.89 2.85 126.34 2.8 126.79 2.75 126.69 2.75L126.69 2.75Q127.64 2.75 128.14 3.13 128.64 3.5 128.64 3.75L128.64 3.75Q128.64 3.85 128.26 4.23 127.89 4.6 127.84 5.55L127.84 5.55Q127.79 6.45 128.39 7.3 128.99 8.15 130.24 8.15L130.24 8.15Q131.64 8.15 132.79 7.13 133.94 6.1 134.84 4.6 135.74 3.1 136.39 1.7L136.39 1.7Q136.74 0.6 136.34-0.6L136.34-0.6Q135.14-3.3 133.99-6.35 132.84-9.4 131.76-12.25 130.69-15.1 129.64-17.25L129.64-17.25Q128.84-19.1 128.09-19.88 127.34-20.65 125.84-20.85L125.84-20.85Q125.19-20.95 124.96-21.05 124.74-21.15 124.69-21.8L124.69-21.8Q124.64-22.65 125.16-22.73 125.69-22.8 126.44-22.85L126.44-22.85Q129.54-23 131.29-21.95 133.04-20.9 134.14-18.4L134.14-18.4Q134.84-16.85 135.69-14.55 136.54-12.25 137.49-9.9 138.44-7.55 139.34-5.65L139.34-5.65 139.49-5.65 144.39-18.75Q144.89-20.2 144.44-20.55 143.99-20.9 142.49-20.9L142.49-20.9Q142.04-20.9 141.74-20.98 141.44-21.05 141.39-21.8L141.39-21.8Q141.39-22.1 141.56-22.45 141.74-22.8 142.09-22.8L142.09-22.8Q143.54-22.75 144.59-22.7 145.64-22.65 146.94-22.65L146.94-22.65Q147.84-22.65 148.39-22.68 148.94-22.7 149.54-22.73 150.14-22.75 151.09-22.8L151.09-22.8Q151.49-22.8 151.66-22.45 151.84-22.1 151.84-21.8L151.84-21.8Q151.79-21.05 151.46-20.98 151.14-20.9 150.74-20.9L150.74-20.9Q149.09-20.9 148.11-20.3 147.14-19.7 146.44-17.95L146.44-17.95Q146.44-17.95 145.91-16.65 145.39-15.35 144.54-13.25 143.69-11.15 142.74-8.83 141.79-6.5 140.94-4.4 140.09-2.3 139.54-0.95 138.99 0.4 138.94 0.5L138.94 0.5Q138.29 2.05 137.36 3.88 136.44 5.7 135.21 7.28 133.99 8.85 132.44 9.88 130.89 10.9 128.99 10.9ZM164.49 0.6L164.49 0.6Q160.99 0.6 158.36-1.05 155.74-2.7 154.29-5.35 152.84-8 152.84-11L152.84-11Q152.84-13.95 153.89-16.25 154.94-18.55 156.66-20.1 158.39-21.65 160.44-22.45 162.49-23.25 164.49-23.25L164.49-23.25Q167.99-23.25 170.61-21.6 173.24-19.95 174.69-17.3 176.14-14.65 176.14-11.65L176.14-11.65Q176.14-8.7 175.06-6.4 173.99-4.1 172.26-2.55 170.54-1 168.49-0.2 166.44 0.6 164.49 0.6ZM164.49-1.25L164.49-1.25Q166.94-1.25 168.36-2.7 169.79-4.15 170.41-6.53 171.04-8.9 171.04-11.65L171.04-11.65Q171.04-14.3 170.39-16.5 169.74-18.7 168.29-20.05 166.84-21.4 164.49-21.4L164.49-21.4Q162.04-21.4 160.59-19.98 159.14-18.55 158.54-16.23 157.94-13.9 157.94-11.1L157.94-11.1Q157.94-8.5 158.56-6.25 159.19-4 160.64-2.63 162.09-1.25 164.49-1.25ZM190.18 0.6L190.18 0.6Q186.78 0.6 184.78-1.45 182.78-3.5 182.78-6.85L182.78-6.85 182.78-16.1Q182.78-17 182.71-17.78 182.63-18.55 182.13-19.03 181.63-19.5 180.23-19.5L180.23-19.5Q179.78-19.5 179.41-19.63 179.03-19.75 179.03-20.5L179.03-20.5Q179.03-21.25 179.83-21.4L179.83-21.4Q182.13-21.75 183.36-22.1 184.58-22.45 185.23-22.7 185.88-22.95 186.38-23L186.38-23Q186.78-23.05 187.06-22.85 187.33-22.65 187.33-22.05L187.33-22.05 187.33-6.9Q187.33-5.25 188.06-4.2 188.78-3.15 189.88-2.65 190.98-2.15 192.13-2.15L192.13-2.15Q193.88-2.15 195.18-2.78 196.48-3.4 197.28-4.23 198.08-5.05 198.33-5.6L198.33-5.6 198.33-16.1Q198.33-17 198.26-17.78 198.18-18.55 197.68-19.03 197.18-19.5 195.78-19.5L195.78-19.5Q195.33-19.5 194.96-19.63 194.58-19.75 194.58-20.5L194.58-20.5Q194.58-21.25 195.38-21.4L195.38-21.4Q197.68-21.75 198.91-22.1 200.13-22.45 200.78-22.7 201.43-22.95 201.93-23L201.93-23Q202.33-23.05 202.61-22.85 202.88-22.65 202.88-22.05L202.88-22.05 202.88-4.75Q202.88-1.8 206.83-1.8L206.83-1.8Q207.38-1.8 207.53-1.5 207.68-1.2 207.68-0.85L207.68-0.85Q207.68-0.15 206.83 0L206.83 0 198.78 0.55Q198.43 0.55 198.38 0.25 198.33-0.05 198.33-0.45L198.33-0.45 198.33-3.25 198.23-3.25Q197.28-2.35 196.21-1.45 195.13-0.55 193.71 0.03 192.28 0.6 190.18 0.6ZM210.43 0.15L210.43 0.15Q210.08 0.15 209.86-0.18 209.63-0.5 209.63-0.85L209.63-0.85Q209.73-1.6 210.03-1.68 210.33-1.75 210.83-1.75L210.83-1.75Q212.23-1.75 212.73-2.23 213.23-2.7 213.31-3.5 213.38-4.3 213.38-5.15L213.38-5.15 213.38-16.6Q213.38-17.5 213.31-18.28 213.23-19.05 212.73-19.53 212.23-20 210.83-20L210.83-20Q210.38-20 210.01-20.13 209.63-20.25 209.63-21L209.63-21Q209.63-21.75 210.43-21.9L210.43-21.9Q212.73-22.25 213.96-22.6 215.18-22.95 215.81-23.2 216.43-23.45 216.93-23.5L216.93-23.5Q217.33-23.55 217.61-23.35 217.88-23.15 217.88-22.55L217.88-22.55 217.88-19.45 218.03-19.45Q219.73-21.1 221.53-22.18 223.33-23.25 224.83-23.25L224.83-23.25Q226.58-23.25 227.51-21.95 228.43-20.65 228.43-19.2L228.43-19.2Q228.43-17.95 227.63-16.78 226.83-15.6 225.23-15.6L225.23-15.6Q224.43-15.6 223.96-15.93 223.48-16.25 223.43-16.4L223.43-16.4Q223.43-16.5 223.91-17 224.38-17.5 224.38-18.25L224.38-18.25Q224.38-19.15 223.91-19.7 223.43-20.25 222.63-20.25L222.63-20.25Q221.78-20.25 220.46-19.4 219.13-18.55 217.93-17.35L217.93-17.35 217.93-5.15Q217.93-4.3 218.01-3.5 218.08-2.7 218.61-2.23 219.13-1.75 220.53-1.75L220.53-1.75Q220.98-1.75 221.31-1.68 221.63-1.6 221.68-0.85L221.68-0.85Q221.68-0.5 221.48-0.18 221.28 0.15 220.88 0.15L220.88 0.15Q219.43 0.05 218.21 0.03 216.98 0 215.63 0L215.63 0Q214.28 0 213.08 0.03 211.88 0.05 210.43 0.15ZM255.08 0.5L252.13 0.5 245.73-17.25Q244.93-19.1 244.18-19.88 243.43-20.65 241.93-20.85L241.93-20.85Q241.28-20.95 241.05-21.05 240.83-21.15 240.78-21.8L240.78-21.8Q240.73-22.65 241.25-22.73 241.78-22.8 242.53-22.85L242.53-22.85Q245.63-23 247.38-21.95 249.13-20.9 250.23-18.4L250.23-18.4 254.83-5.45 254.98-5.45Q255.48-7.05 256.18-9.47 256.88-11.9 257.6-14.5 258.33-17.1 258.93-19.33 259.53-21.55 259.83-22.65L259.83-22.65 262.23-22.65 269.08-5.45 269.23-5.45Q269.93-7.55 270.58-10.08 271.23-12.6 271.78-14.93 272.33-17.25 272.73-18.75L272.73-18.75Q273.03-20.1 272.63-20.5 272.23-20.9 270.83-20.9L270.83-20.9Q270.38-20.9 270.08-20.98 269.78-21.05 269.73-21.8L269.73-21.8Q269.73-22.1 269.9-22.45 270.08-22.8 270.43-22.8L270.43-22.8Q271.88-22.75 272.95-22.7 274.03-22.65 275.33-22.65L275.33-22.65Q276.63-22.65 277.35-22.7 278.08-22.75 279.53-22.8L279.53-22.8Q279.93-22.8 280.1-22.45 280.28-22.1 280.28-21.8L280.28-21.8Q280.23-21.05 279.9-20.98 279.58-20.9 279.18-20.9L279.18-20.9Q277.38-20.9 276.35-20.3 275.33-19.7 274.88-17.95L274.88-17.95 269.33 0.5 266.38 0.5 260.03-15.85 255.08 0.5ZM287.42 0.6L287.42 0.6Q284.37 0.6 282.55-1.15 280.72-2.9 280.72-5.35L280.72-5.35Q280.72-7.9 282.05-9.35 283.37-10.8 285.55-11.5 287.72-12.2 290.3-12.45 292.87-12.7 295.32-12.85L295.32-12.85 295.32-16.8Q295.32-19.15 294.15-20.48 292.97-21.8 290.17-21.8L290.17-21.8Q288.77-21.8 287.55-20.9 286.32-20 286.32-18.3L286.32-18.3Q286.32-17.5 286.72-16.95 287.12-16.4 287.52-16.1 287.92-15.8 287.92-15.7L287.92-15.7Q287.92-15.5 287.35-14.98 286.77-14.45 285.77-14.45L285.77-14.45Q284.22-14.45 283.37-15.6 282.52-16.75 282.52-18.15L282.52-18.15Q282.52-20.05 283.7-21.15 284.87-22.25 286.72-22.75 288.57-23.25 290.47-23.25L290.47-23.25Q292.72-23.25 294.85-22.7 296.97-22.15 298.35-20.6 299.72-19.05 299.72-15.95L299.72-15.95 299.72-4.3Q299.77-3.8 299.97-3.1 300.17-2.4 300.75-1.88 301.32-1.35 302.32-1.35L302.32-1.35Q302.67-1.35 302.87-1.23 303.07-1.1 303.07-0.55L303.07-0.55Q303.07-0.1 302.57 0.15 302.07 0.4 301.42 0.5 300.77 0.6 300.32 0.6L300.32 0.6Q298.47 0.6 297.02-0.48 295.57-1.55 295.32-3.45L295.32-3.45Q294.22-1.45 292.05-0.43 289.87 0.6 287.42 0.6ZM289.02-2.1L289.02-2.1Q290.72-2.1 292.15-2.95 293.57-3.8 294.45-5.28 295.32-6.75 295.32-8.55L295.32-8.55 295.32-11.4Q290.17-11.05 287.97-9.75 285.77-8.45 285.77-5.5L285.77-5.5Q285.77-2.1 289.02-2.1ZM307.92 10.9L307.92 10.9Q306.47 10.9 305.2 10.25 303.92 9.6 303.17 8.53 302.42 7.45 302.42 6.2L302.42 6.2Q302.47 4.85 303 4.13 303.52 3.4 304.17 3.13 304.82 2.85 305.27 2.8 305.72 2.75 305.62 2.75L305.62 2.75Q306.57 2.75 307.07 3.13 307.57 3.5 307.57 3.75L307.57 3.75Q307.57 3.85 307.2 4.23 306.82 4.6 306.77 5.55L306.77 5.55Q306.72 6.45 307.32 7.3 307.92 8.15 309.17 8.15L309.17 8.15Q310.57 8.15 311.72 7.13 312.87 6.1 313.77 4.6 314.67 3.1 315.32 1.7L315.32 1.7Q315.67 0.6 315.27-0.6L315.27-0.6Q314.07-3.3 312.92-6.35 311.77-9.4 310.7-12.25 309.62-15.1 308.57-17.25L308.57-17.25Q307.77-19.1 307.02-19.88 306.27-20.65 304.77-20.85L304.77-20.85Q304.12-20.95 303.9-21.05 303.67-21.15 303.62-21.8L303.62-21.8Q303.57-22.65 304.1-22.73 304.62-22.8 305.37-22.85L305.37-22.85Q308.47-23 310.22-21.95 311.97-20.9 313.07-18.4L313.07-18.4Q313.77-16.85 314.62-14.55 315.47-12.25 316.42-9.9 317.37-7.55 318.27-5.65L318.27-5.65 318.42-5.65 323.32-18.75Q323.82-20.2 323.37-20.55 322.92-20.9 321.42-20.9L321.42-20.9Q320.97-20.9 320.67-20.98 320.37-21.05 320.32-21.8L320.32-21.8Q320.32-22.1 320.5-22.45 320.67-22.8 321.02-22.8L321.02-22.8Q322.47-22.75 323.52-22.7 324.57-22.65 325.87-22.65L325.87-22.65Q326.77-22.65 327.32-22.68 327.87-22.7 328.47-22.73 329.07-22.75 330.02-22.8L330.02-22.8Q330.42-22.8 330.6-22.45 330.77-22.1 330.77-21.8L330.77-21.8Q330.72-21.05 330.4-20.98 330.07-20.9 329.67-20.9L329.67-20.9Q328.02-20.9 327.05-20.3 326.07-19.7 325.37-17.95L325.37-17.95Q325.37-17.95 324.85-16.65 324.32-15.35 323.47-13.25 322.62-11.15 321.67-8.83 320.72-6.5 319.87-4.4 319.02-2.3 318.47-0.95 317.92 0.4 317.87 0.5L317.87 0.5Q317.22 2.05 316.3 3.88 315.37 5.7 314.15 7.28 312.92 8.85 311.37 9.88 309.82 10.9 307.92 10.9ZM352.67 0.85L352.67 0.85Q351.17 0.85 349.82 0.1 348.47-0.65 347.59-2.2 346.72-3.75 346.72-6.1L346.72-6.1 346.72-20.8 343.82-20.7Q343.47-20.7 343.29-20.98 343.12-21.25 343.12-21.6L343.12-21.6Q343.12-22.6 343.82-22.75L343.82-22.75Q345.67-23.1 346.62-23.93 347.57-24.75 348.09-25.9 348.62-27.05 349.07-28.4L349.07-28.4Q349.22-28.8 349.52-28.93 349.82-29.05 350.17-29.05L350.17-29.05Q350.47-29.05 350.84-28.9 351.22-28.75 351.22-28.35L351.22-28.35 350.87-22.65 356.72-23Q357.17-23.05 357.32-22.75 357.47-22.45 357.47-22.05L357.47-22.05Q357.47-21.55 357.29-21.05 357.12-20.55 356.87-20.55L356.87-20.55 351.27-20.7 351.27-5.5Q351.27-4.05 351.89-2.85 352.52-1.65 354.17-1.65L354.17-1.65Q354.72-1.65 355.42-1.75 356.12-1.85 356.92-2.2L356.92-2.2Q357.12-2.3 357.32-2.38 357.52-2.45 357.72-2.45L357.72-2.45Q358.12-2.45 358.32-2.13 358.52-1.8 358.67-1.45L358.67-1.45Q358.82-1 358.42-0.75L358.42-0.75Q356.87 0.25 355.57 0.55 354.27 0.85 352.67 0.85ZM374.51 0.6L374.51 0.6Q371.01 0.6 368.39-1.05 365.76-2.7 364.31-5.35 362.86-8 362.86-11L362.86-11Q362.86-13.95 363.91-16.25 364.96-18.55 366.69-20.1 368.41-21.65 370.46-22.45 372.51-23.25 374.51-23.25L374.51-23.25Q378.01-23.25 380.64-21.6 383.26-19.95 384.71-17.3 386.16-14.65 386.16-11.65L386.16-11.65Q386.16-8.7 385.09-6.4 384.01-4.1 382.29-2.55 380.56-1 378.51-0.2 376.46 0.6 374.51 0.6ZM374.51-1.25L374.51-1.25Q376.96-1.25 378.39-2.7 379.81-4.15 380.44-6.53 381.06-8.9 381.06-11.65L381.06-11.65Q381.06-14.3 380.41-16.5 379.76-18.7 378.31-20.05 376.86-21.4 374.51-21.4L374.51-21.4Q372.06-21.4 370.61-19.98 369.16-18.55 368.56-16.23 367.96-13.9 367.96-11.1L367.96-11.1Q367.96-8.5 368.59-6.25 369.21-4 370.66-2.63 372.11-1.25 374.51-1.25ZM410.26 0.6L410.26 0.6Q406.41 0.6 403.83-0.78 401.26-2.15 401.26-4.75L401.26-4.75Q401.26-6.2 402.13-7.1 403.01-8 404.41-8L404.41-8Q405.31-8 405.88-7.53 406.46-7.05 406.46-6.85L406.46-6.85Q406.46-6.7 405.88-6.18 405.31-5.65 405.31-4.5L405.31-4.5Q405.31-3.1 406.63-2.18 407.96-1.25 410.66-1.25L410.66-1.25Q413.01-1.25 414.33-2.27 415.66-3.3 415.66-5.15L415.66-5.15Q415.66-6.65 414.68-7.48 413.71-8.3 412.18-8.8 410.66-9.3 408.93-9.8 407.21-10.3 405.66-11.05 404.11-11.8 403.13-13.13 402.16-14.45 402.16-16.65L402.16-16.65Q402.16-18.9 403.51-20.35 404.86-21.8 406.96-22.53 409.06-23.25 411.21-23.25L411.21-23.25Q413.06-23.25 414.71-22.73 416.36-22.2 417.43-21.15 418.51-20.1 418.51-18.5L418.51-18.5Q418.51-17.25 417.71-16.25 416.91-15.25 415.51-15.25L415.51-15.25Q414.61-15.25 414.03-15.73 413.46-16.2 413.46-16.4L413.46-16.4Q413.46-16.5 413.83-16.78 414.21-17.05 414.56-17.53 414.91-18 414.91-18.75L414.91-18.75Q414.81-20.2 413.51-20.9 412.21-21.6 410.61-21.6L410.61-21.6Q408.86-21.6 407.36-20.75 405.86-19.9 405.86-18.3L405.86-18.3Q405.86-16.85 406.48-16.05 407.11-15.25 408.48-14.68 409.86-14.1 412.06-13.4L412.06-13.4Q414.26-12.7 415.93-11.95 417.61-11.2 418.53-9.98 419.46-8.75 419.46-6.65L419.46-6.65Q419.46-4.55 418.26-2.9 417.06-1.25 414.98-0.33 412.91 0.6 410.26 0.6ZM433.51 0.6L433.51 0.6Q430.11 0.6 428.11-1.45 426.11-3.5 426.11-6.85L426.11-6.85 426.11-16.1Q426.11-17 426.03-17.78 425.96-18.55 425.46-19.03 424.96-19.5 423.56-19.5L423.56-19.5Q423.11-19.5 422.73-19.63 422.36-19.75 422.36-20.5L422.36-20.5Q422.36-21.25 423.16-21.4L423.16-21.4Q425.46-21.75 426.68-22.1 427.91-22.45 428.56-22.7 429.21-22.95 429.71-23L429.71-23Q430.11-23.05 430.38-22.85 430.66-22.65 430.66-22.05L430.66-22.05 430.66-6.9Q430.66-5.25 431.38-4.2 432.11-3.15 433.21-2.65 434.31-2.15 435.46-2.15L435.46-2.15Q437.21-2.15 438.51-2.78 439.81-3.4 440.61-4.23 441.41-5.05 441.66-5.6L441.66-5.6 441.66-16.1Q441.66-17 441.58-17.78 441.51-18.55 441.01-19.03 440.51-19.5 439.11-19.5L439.11-19.5Q438.66-19.5 438.28-19.63 437.91-19.75 437.91-20.5L437.91-20.5Q437.91-21.25 438.71-21.4L438.71-21.4Q441.01-21.75 442.23-22.1 443.46-22.45 444.11-22.7 444.76-22.95 445.26-23L445.26-23Q445.66-23.05 445.93-22.85 446.21-22.65 446.21-22.05L446.21-22.05 446.21-4.75Q446.21-1.8 450.16-1.8L450.16-1.8Q450.71-1.8 450.86-1.5 451.01-1.2 451.01-0.85L451.01-0.85Q451.01-0.15 450.16 0L450.16 0 442.11 0.55Q441.76 0.55 441.71 0.25 441.66-0.05 441.66-0.45L441.66-0.45 441.66-3.25 441.56-3.25Q440.61-2.35 439.53-1.45 438.46-0.55 437.03 0.03 435.61 0.6 433.51 0.6ZM464 0.6L464 0.6Q458.85 0.6 455.98-2.68 453.1-5.95 453.1-11.35L453.1-11.35Q453.25-14.8 454.83-17.45 456.4-20.1 459.03-21.63 461.65-23.15 464.85-23.25L464.85-23.25Q466.6-23.25 468.43-22.83 470.25-22.4 471.48-21.28 472.7-20.15 472.7-18.05L472.7-18.05Q472.7-16.6 471.8-15.38 470.9-14.15 469.3-14.15L469.3-14.15Q468.2-14.15 467.6-14.7 467-15.25 467-15.5L467-15.5Q467-15.6 467.43-15.93 467.85-16.25 468.25-16.82 468.65-17.4 468.65-18.25L468.65-18.25Q468.65-19.85 467.5-20.6 466.35-21.35 464.9-21.4L464.9-21.4Q462.7-21.4 461.38-20.5 460.05-19.6 459.35-18.13 458.65-16.65 458.43-14.9 458.2-13.15 458.2-11.5L458.2-11.5Q458.2-8.75 459.05-6.58 459.9-4.4 461.45-3.15 463-1.9 465.15-1.9L465.15-1.9Q467.35-1.9 468.85-2.85 470.35-3.8 471.6-5.65L471.6-5.65Q471.95-6.15 472.65-5.75L472.65-5.75Q473-5.55 473.15-5.2 473.3-4.85 473.05-4.5L473.05-4.5Q471.4-2.15 468.95-0.78 466.5 0.6 464 0.6ZM487.75 0.6L487.75 0.6Q482.6 0.6 479.73-2.68 476.85-5.95 476.85-11.35L476.85-11.35Q477-14.8 478.58-17.45 480.15-20.1 482.78-21.63 485.4-23.15 488.6-23.25L488.6-23.25Q490.35-23.25 492.18-22.83 494-22.4 495.23-21.28 496.45-20.15 496.45-18.05L496.45-18.05Q496.45-16.6 495.55-15.38 494.65-14.15 493.05-14.15L493.05-14.15Q491.95-14.15 491.35-14.7 490.75-15.25 490.75-15.5L490.75-15.5Q490.75-15.6 491.18-15.93 491.6-16.25 492-16.82 492.4-17.4 492.4-18.25L492.4-18.25Q492.4-19.85 491.25-20.6 490.1-21.35 488.65-21.4L488.65-21.4Q486.45-21.4 485.13-20.5 483.8-19.6 483.1-18.13 482.4-16.65 482.18-14.9 481.95-13.15 481.95-11.5L481.95-11.5Q481.95-8.75 482.8-6.58 483.65-4.4 485.2-3.15 486.75-1.9 488.9-1.9L488.9-1.9Q491.1-1.9 492.6-2.85 494.1-3.8 495.35-5.65L495.35-5.65Q495.7-6.15 496.4-5.75L496.4-5.75Q496.75-5.55 496.9-5.2 497.05-4.85 496.8-4.5L496.8-4.5Q495.15-2.15 492.7-0.78 490.25 0.6 487.75 0.6ZM512.3 0.6L512.3 0.6Q508.45 0.6 505.82-1.05 503.2-2.7 501.9-5.45 500.6-8.2 500.6-11.45L500.6-11.45Q500.6-13.65 501.37-15.73 502.15-17.8 503.6-19.53 505.05-21.25 507.1-22.25 509.15-23.25 511.75-23.25L511.75-23.25Q516.35-23.25 518.67-20.88 521-18.5 521.35-14.85L521.35-14.85Q521.35-13.1 520.37-12.55 519.4-12 517.85-12L517.85-12 505.7-12Q505.7-9.1 506.5-6.83 507.3-4.55 509.02-3.23 510.75-1.9 513.6-1.9L513.6-1.9Q515.7-1.9 517.2-2.8 518.7-3.7 520.1-5.95L520.1-5.95Q520.5-6.45 521.2-6L521.2-6Q521.6-5.8 521.7-5.38 521.8-4.95 521.6-4.65L521.6-4.65Q520.05-2.2 517.7-0.8 515.35 0.6 512.3 0.6ZM505.7-13.9L505.7-13.9 513.85-13.9Q515.05-13.9 515.77-14.38 516.5-14.85 516.55-16L516.55-16Q516.55-18.15 515.37-19.83 514.2-21.5 511.75-21.5L511.75-21.5Q509.25-21.5 507.57-19.5 505.9-17.5 505.7-13.9ZM534.54 0.6L534.54 0.6Q530.69 0.6 528.12-0.78 525.54-2.15 525.54-4.75L525.54-4.75Q525.54-6.2 526.42-7.1 527.29-8 528.69-8L528.69-8Q529.6-8 530.17-7.53 530.75-7.05 530.75-6.85L530.75-6.85Q530.75-6.7 530.17-6.18 529.6-5.65 529.6-4.5L529.6-4.5Q529.6-3.1 530.92-2.18 532.25-1.25 534.94-1.25L534.94-1.25Q537.29-1.25 538.62-2.27 539.94-3.3 539.94-5.15L539.94-5.15Q539.94-6.65 538.97-7.48 538-8.3 536.47-8.8 534.94-9.3 533.22-9.8 531.5-10.3 529.94-11.05 528.39-11.8 527.42-13.13 526.44-14.45 526.44-16.65L526.44-16.65Q526.44-18.9 527.79-20.35 529.14-21.8 531.25-22.53 533.35-23.25 535.5-23.25L535.5-23.25Q537.35-23.25 539-22.73 540.64-22.2 541.72-21.15 542.79-20.1 542.79-18.5L542.79-18.5Q542.79-17.25 542-16.25 541.19-15.25 539.79-15.25L539.79-15.25Q538.89-15.25 538.32-15.73 537.75-16.2 537.75-16.4L537.75-16.4Q537.75-16.5 538.12-16.78 538.5-17.05 538.85-17.53 539.19-18 539.19-18.75L539.19-18.75Q539.1-20.2 537.79-20.9 536.5-21.6 534.89-21.6L534.89-21.6Q533.14-21.6 531.64-20.75 530.14-19.9 530.14-18.3L530.14-18.3Q530.14-16.85 530.77-16.05 531.39-15.25 532.77-14.68 534.14-14.1 536.35-13.4L536.35-13.4Q538.54-12.7 540.22-11.95 541.89-11.2 542.82-9.98 543.75-8.75 543.75-6.65L543.75-6.65Q543.75-4.55 542.54-2.9 541.35-1.25 539.27-0.33 537.19 0.6 534.54 0.6ZM556.69 0.6L556.69 0.6Q552.84 0.6 550.27-0.78 547.69-2.15 547.69-4.75L547.69-4.75Q547.69-6.2 548.57-7.1 549.44-8 550.84-8L550.84-8Q551.74-8 552.32-7.53 552.89-7.05 552.89-6.85L552.89-6.85Q552.89-6.7 552.32-6.18 551.74-5.65 551.74-4.5L551.74-4.5Q551.74-3.1 553.07-2.18 554.39-1.25 557.09-1.25L557.09-1.25Q559.44-1.25 560.77-2.27 562.09-3.3 562.09-5.15L562.09-5.15Q562.09-6.65 561.12-7.48 560.14-8.3 558.62-8.8 557.09-9.3 555.37-9.8 553.64-10.3 552.09-11.05 550.54-11.8 549.57-13.13 548.59-14.45 548.59-16.65L548.59-16.65Q548.59-18.9 549.94-20.35 551.29-21.8 553.39-22.53 555.49-23.25 557.64-23.25L557.64-23.25Q559.49-23.25 561.14-22.73 562.79-22.2 563.87-21.15 564.94-20.1 564.94-18.5L564.94-18.5Q564.94-17.25 564.14-16.25 563.34-15.25 561.94-15.25L561.94-15.25Q561.04-15.25 560.47-15.73 559.89-16.2 559.89-16.4L559.89-16.4Q559.89-16.5 560.27-16.78 560.64-17.05 560.99-17.53 561.34-18 561.34-18.75L561.34-18.75Q561.24-20.2 559.94-20.9 558.64-21.6 557.04-21.6L557.04-21.6Q555.29-21.6 553.79-20.75 552.29-19.9 552.29-18.3L552.29-18.3Q552.29-16.85 552.92-16.05 553.54-15.25 554.92-14.68 556.29-14.1 558.49-13.4L558.49-13.4Q560.69-12.7 562.37-11.95 564.04-11.2 564.97-9.98 565.89-8.75 565.89-6.65L565.89-6.65Q565.89-4.55 564.69-2.9 563.49-1.25 561.42-0.33 559.34 0.6 556.69 0.6Z" opacity="1" transform="matrix(1,0,0,1,0,0)" fill="#89939e" class="slogan-text-1" data-fill-palette-color="secondary" id="text-1"></path></svg></g></svg></g></svg></g></svg></g><g><svg viewBox="0 0 245.65351679999995 217.02617783433067" height="217.02617783433067" width="245.65351679999995"><g><svg xmlns="http://www.w3.org/2000/svg" xmlns:xlink="http://www.w3.org/1999/xlink" version="1.1" x="0" y="0" viewBox="0.5 8.100000000000001 126.99999999999999 112.19999999999999" enable-background="new 0 0 128 128" xml:space="preserve" height="217.02617783433067" width="245.65351679999995" class="icon-icon-0" data-fill-palette-color="accent" id="icon-0"><g fill="#000000" data-fill-palette-color="accent"><path d="M9.8 52.7v10.4c0 0.4 0.3 0.8 0.8 0.8 0.4 0 0.8-0.3 0.8-0.8V52.7c0-0.4-0.3-0.8-0.8-0.8C10.1 51.9 9.8 52.2 9.8 52.7z" fill="#000000" data-fill-palette-color="accent"></path><path d="M10.6 70.6c0.4 0 0.8-0.3 0.8-0.8v-3.4c0-0.4-0.3-0.8-0.8-0.8-0.4 0-0.8 0.3-0.8 0.8v3.4C9.8 70.3 10.1 70.6 10.6 70.6z" fill="#000000" data-fill-palette-color="accent"></path><path d="M121.7 47.4c0-0.4-0.3-0.8-0.8-0.8-0.4 0-0.8 0.3-0.8 0.8v10.4c0 0.4 0.3 0.8 0.8 0.8 0.4 0 0.8-0.3 0.8-0.8V47.4z" fill="#000000" data-fill-palette-color="accent"></path><path d="M121 60.5c-0.4 0-0.8 0.3-0.8 0.8v3.4c0 0.4 0.3 0.8 0.8 0.8 0.4 0 0.8-0.3 0.8-0.8v-3.4C121.7 60.8 121.4 60.5 121 60.5z" fill="#000000" data-fill-palette-color="accent"></path><path d="M6.6 106c-0.3-0.3-0.8-0.3-1.1 0-0.3 0.3-0.3 0.8 0 1.1l1.5 1.5c0.1 0.1 0.3 0.2 0.5 0.2s0.4-0.1 0.5-0.2c0.3-0.3 0.3-0.8 0-1.1L6.6 106z" fill="#000000" data-fill-palette-color="accent"></path><path d="M11.3 110.7c-0.3-0.3-0.8-0.3-1.1 0-0.3 0.3-0.3 0.8 0 1.1l1.5 1.5c0.1 0.1 0.3 0.2 0.5 0.2 0.2 0 0.4-0.1 0.5-0.2 0.3-0.3 0.3-0.8 0-1.1L11.3 110.7z" fill="#000000" data-fill-palette-color="accent"></path><path d="M7 110.7l-1.5 1.5c-0.3 0.3-0.3 0.8 0 1.1 0.1 0.1 0.3 0.2 0.5 0.2 0.2 0 0.4-0.1 0.5-0.2l1.5-1.5c0.3-0.3 0.3-0.8 0-1.1C7.7 110.4 7.2 110.4 7 110.7z" fill="#000000" data-fill-palette-color="accent"></path><path d="M11.7 106l-1.5 1.5c-0.3 0.3-0.3 0.8 0 1.1 0.1 0.1 0.3 0.2 0.5 0.2 0.2 0 0.4-0.1 0.5-0.2l1.5-1.5c0.3-0.3 0.3-0.8 0-1.1C12.4 105.7 12 105.7 11.7 106z" fill="#000000" data-fill-palette-color="accent"></path><path d="M84.2 101.3c-0.3-0.3-0.8-0.3-1.1 0-0.3 0.3-0.3 0.8 0 1.1l1.5 1.5c0.1 0.1 0.3 0.2 0.5 0.2 0.2 0 0.4-0.1 0.5-0.2 0.3-0.3 0.3-0.8 0-1.1L84.2 101.3z" fill="#000000" data-fill-palette-color="accent"></path><path d="M88.9 106c-0.3-0.3-0.8-0.3-1.1 0-0.3 0.3-0.3 0.8 0 1.1l1.5 1.5c0.1 0.1 0.3 0.2 0.5 0.2 0.2 0 0.4-0.1 0.5-0.2 0.3-0.3 0.3-0.8 0-1.1L88.9 106z" fill="#000000" data-fill-palette-color="accent"></path><path d="M84.6 106l-1.5 1.5c-0.3 0.3-0.3 0.8 0 1.1 0.1 0.1 0.3 0.2 0.5 0.2 0.2 0 0.4-0.1 0.5-0.2l1.5-1.5c0.3-0.3 0.3-0.8 0-1.1C85.4 105.7 84.9 105.7 84.6 106z" fill="#000000" data-fill-palette-color="accent"></path><path d="M89.3 101.3l-1.5 1.5c-0.3 0.3-0.3 0.8 0 1.1 0.1 0.1 0.3 0.2 0.5 0.2 0.2 0 0.4-0.1 0.5-0.2l1.5-1.5c0.3-0.3 0.3-0.8 0-1.1C90.1 101 89.6 101 89.3 101.3z" fill="#000000" data-fill-palette-color="accent"></path><path d="M70.7 19.7c0.1 0.1 0.3 0.2 0.5 0.2 0.2 0 0.4-0.1 0.5-0.2 0.3-0.3 0.3-0.8 0-1.1l-1.5-1.5c-0.3-0.3-0.8-0.3-1.1 0-0.3 0.3-0.3 0.8 0 1.1L70.7 19.7z" fill="#000000" data-fill-palette-color="accent"></path><path d="M75.4 24.4c0.1 0.1 0.3 0.2 0.5 0.2 0.2 0 0.4-0.1 0.5-0.2 0.3-0.3 0.3-0.8 0-1.1l-1.5-1.5c-0.3-0.3-0.8-0.3-1.1 0-0.3 0.3-0.3 0.8 0 1.1L75.4 24.4z" fill="#000000" data-fill-palette-color="accent"></path><path d="M69.8 24.6c0.2 0 0.4-0.1 0.5-0.2l1.5-1.5c0.3-0.3 0.3-0.8 0-1.1-0.3-0.3-0.8-0.3-1.1 0l-1.5 1.5c-0.3 0.3-0.3 0.8 0 1.1C69.4 24.5 69.6 24.6 69.8 24.6z" fill="#000000" data-fill-palette-color="accent"></path><path d="M74.5 19.9c0.2 0 0.4-0.1 0.5-0.2l1.5-1.5c0.3-0.3 0.3-0.8 0-1.1-0.3-0.3-0.8-0.3-1.1 0L74 18.6c-0.3 0.3-0.3 0.8 0 1.1C74.1 19.8 74.3 19.9 74.5 19.9z" fill="#000000" data-fill-palette-color="accent"></path><path d="M3.5 37.8C3.7 38 3.8 38.1 4 38.1c0.2 0 0.4-0.1 0.5-0.2 0.3-0.3 0.3-0.8 0-1.1l-1.5-1.5C2.8 35 2.3 35 2 35.3c-0.3 0.3-0.3 0.8 0 1.1L3.5 37.8z" fill="#000000" data-fill-palette-color="accent"></path><path d="M7.8 40c-0.3-0.3-0.8-0.3-1.1 0-0.3 0.3-0.3 0.8 0 1.1l1.5 1.5c0.1 0.1 0.3 0.2 0.5 0.2 0.2 0 0.4-0.1 0.5-0.2 0.3-0.3 0.3-0.8 0-1.1L7.8 40z" fill="#000000" data-fill-palette-color="accent"></path><path d="M2 42.6c0.1 0.1 0.3 0.2 0.5 0.2 0.2 0 0.4-0.1 0.5-0.2l1.5-1.5c0.3-0.3 0.3-0.8 0-1.1-0.3-0.3-0.8-0.3-1.1 0L2 41.5C1.8 41.8 1.8 42.3 2 42.6z" fill="#000000" data-fill-palette-color="accent"></path><path d="M8.2 35.3l-1.5 1.5c-0.3 0.3-0.3 0.8 0 1.1 0.1 0.1 0.3 0.2 0.5 0.2 0.2 0 0.4-0.1 0.5-0.2l1.5-1.5c0.3-0.3 0.3-0.8 0-1.1C9 35 8.5 35 8.2 35.3z" fill="#000000" data-fill-palette-color="accent"></path><path d="M120.4 74.3c-1.8 0-3.3 1.5-3.3 3.3 0 1.8 1.5 3.3 3.3 3.3 1.8 0 3.3-1.5 3.3-3.3C123.7 75.8 122.2 74.3 120.4 74.3zM120.4 79.4c-1 0-1.8-0.8-1.8-1.8 0-1 0.8-1.8 1.8-1.8s1.8 0.8 1.8 1.8C122.2 78.6 121.4 79.4 120.4 79.4z" fill="#000000" data-fill-palette-color="accent"></path><path d="M86.4 15.9c1.8 0 3.3-1.5 3.3-3.3 0-1.8-1.5-3.3-3.3-3.3-1.8 0-3.3 1.5-3.3 3.3C83 14.4 84.5 15.9 86.4 15.9zM86.4 10.8c1 0 1.8 0.8 1.8 1.8 0 1-0.8 1.8-1.8 1.8-1 0-1.8-0.8-1.8-1.8C84.6 11.6 85.4 10.8 86.4 10.8z" fill="#000000" data-fill-palette-color="accent"></path><path d="M5.2 78.7c-1.8 0-3.2 1.4-3.2 3.2s1.4 3.2 3.2 3.2c1.8 0 3.2-1.4 3.2-3.2S6.9 78.7 5.2 78.7zM5.2 83.6c-0.9 0-1.7-0.8-1.7-1.7 0-0.9 0.8-1.7 1.7-1.7 0.9 0 1.7 0.8 1.7 1.7C6.9 82.8 6.1 83.6 5.2 83.6z" fill="#000000" data-fill-palette-color="accent"></path><path d="M122.5 108.6h-11.3c-0.4 0-0.8 0.3-0.8 0.8 0 0.4 0.3 0.8 0.8 0.8h11.3c0.4 0 0.8-0.3 0.8-0.8C123.2 108.9 122.9 108.6 122.5 108.6z" fill="#000000" data-fill-palette-color="accent"></path><path d="M103.9 108.6c-0.4 0-0.8 0.3-0.8 0.8 0 0.4 0.3 0.8 0.8 0.8h3.6c0.4 0 0.8-0.3 0.8-0.8 0-0.4-0.3-0.8-0.8-0.8H103.9z" fill="#000000" data-fill-palette-color="accent"></path><path d="M111.7 112.4h-7.9c-0.4 0-0.8 0.3-0.8 0.8 0 0.4 0.3 0.8 0.8 0.8h7.9c0.4 0 0.8-0.3 0.8-0.8C112.5 112.8 112.1 112.4 111.7 112.4z" fill="#000000" data-fill-palette-color="accent"></path><path d="M117.6 112.4h-2.5c-0.4 0-0.8 0.3-0.8 0.8 0 0.4 0.3 0.8 0.8 0.8h2.5c0.4 0 0.8-0.3 0.8-0.8C118.4 112.8 118.1 112.4 117.6 112.4z" fill="#000000" data-fill-palette-color="accent"></path><path d="M8.6 17.2h11.3c0.4 0 0.8-0.3 0.8-0.8 0-0.4-0.3-0.8-0.8-0.8H8.6c-0.4 0-0.8 0.3-0.8 0.8C7.8 16.9 8.2 17.2 8.6 17.2z" fill="#000000" data-fill-palette-color="accent"></path><path d="M1.3 17.2h3.6c0.4 0 0.8-0.3 0.8-0.8 0-0.4-0.3-0.8-0.8-0.8H1.3c-0.4 0-0.8 0.3-0.8 0.8C0.5 16.9 0.8 17.2 1.3 17.2z" fill="#000000" data-fill-palette-color="accent"></path><path d="M9.1 19.6H1.3c-0.4 0-0.8 0.3-0.8 0.8 0 0.4 0.3 0.8 0.8 0.8h7.9c0.4 0 0.8-0.3 0.8-0.8C9.9 19.9 9.5 19.6 9.1 19.6z" fill="#000000" data-fill-palette-color="accent"></path><path d="M15.8 20.3c0-0.4-0.3-0.8-0.8-0.8h-2.5c-0.4 0-0.8 0.3-0.8 0.8 0 0.4 0.3 0.8 0.8 0.8H15C15.5 21.1 15.8 20.7 15.8 20.3z" fill="#000000" data-fill-palette-color="accent"></path><path d="M34.7 108H23.5c-0.4 0-0.8 0.3-0.8 0.8 0 0.4 0.3 0.8 0.8 0.8h11.3c0.4 0 0.8-0.3 0.8-0.8C35.5 108.3 35.2 108 34.7 108z" fill="#000000" data-fill-palette-color="accent"></path><path d="M42.1 108h-3.6c-0.4 0-0.8 0.3-0.8 0.8 0 0.4 0.3 0.8 0.8 0.8h3.6c0.4 0 0.8-0.3 0.8-0.8C42.8 108.3 42.5 108 42.1 108z" fill="#000000" data-fill-palette-color="accent"></path><path d="M42.1 104.1h-7.9c-0.4 0-0.8 0.3-0.8 0.8 0 0.4 0.3 0.8 0.8 0.8h7.9c0.4 0 0.8-0.3 0.8-0.8C42.8 104.5 42.5 104.1 42.1 104.1z" fill="#000000" data-fill-palette-color="accent"></path><path d="M30.8 105.6c0.4 0 0.8-0.3 0.8-0.8 0-0.4-0.3-0.8-0.8-0.8h-2.5c-0.4 0-0.8 0.3-0.8 0.8 0 0.4 0.3 0.8 0.8 0.8H30.8z" fill="#000000" data-fill-palette-color="accent"></path><path d="M78.2 112.8h-4.7L70.1 97h37.2c3.7 0 6.6-3 6.6-6.6V42c7.9-1.7 13.6-8.6 13.6-16.7 0-9.4-7.7-17.1-17.1-17.1-9.4 0-17.1 7.7-17.1 17.1 0 1.1 0.1 2.1 0.3 3.1H62.7v-8.5c0 0 0-0.1 0-0.1 0.1-0.2 0-0.5-0.2-0.7l-7.3-7.3c0 0 0 0 0 0-0.1-0.1-0.1-0.1-0.2-0.1 0 0 0 0-0.1 0-0.1 0-0.1 0-0.2 0 0 0 0 0 0 0h-6.2c-0.2-2-1.9-3.6-3.9-3.6-2 0-3.7 1.6-3.9 3.6h-1.3c-0.2-2-1.9-3.6-3.9-3.6-2 0-3.7 1.6-3.9 3.6h-0.9c-1.6 0-3 1.3-3 3v13.9h-5.5c-3.7 0-6.6 3-6.6 6.6v55.3c0 3.7 3 6.6 6.6 6.6h37.2l-3.4 15.8h-4.7c-1.7 0-3.2 1.4-3.2 3.2v1c0 1.7 1.4 3.2 3.2 3.2h27.1c1.7 0 3.2-1.4 3.2-3.2v-1C81.4 114.2 80 112.8 78.2 112.8zM110.4 9.7c8.6 0 15.6 7 15.6 15.6 0 7.6-5.4 14.1-12.9 15.4-0.9 0.2-1.8 0.2-2.7 0.2-7.2 0-13.5-4.9-15.2-11.9-0.3-1.2-0.4-2.4-0.4-3.7C94.8 16.7 101.8 9.7 110.4 9.7zM55.4 14.1l4.8 4.8h-4.8V14.1zM44.5 9.5c1.2 0 2.2 0.9 2.4 2.1h-4.9C42.3 10.3 43.3 9.5 44.5 9.5zM35.4 9.5c1.2 0 2.2 0.9 2.4 2.1h-4.9C33.2 10.3 34.2 9.5 35.4 9.5zM29.1 14.5c0-0.8 0.7-1.5 1.5-1.5h7.1c-0.4 0.8-1.2 1.4-2.2 1.4-0.4 0-0.8 0.3-0.8 0.8 0 0.4 0.3 0.8 0.8 0.8 1.8 0 3.3-1.2 3.8-2.9h7.6c-0.4 0.8-1.2 1.4-2.2 1.4-0.4 0-0.8 0.3-0.8 0.8 0 0.4 0.3 0.8 0.8 0.8 1.8 0 3.3-1.2 3.8-2.9h5.5v6.6c0 0.4 0.3 0.8 0.8 0.8h6.6V54c0 0.8-0.7 1.5-1.5 1.5H30.5c-0.8 0-1.5-0.7-1.5-1.5V14.5zM17 35.1c0-2.8 2.3-5.1 5.1-5.1h5.5V54c0 1.6 1.3 3 3 3h29.2c1.6 0 3-1.3 3-3V29.9h31.2c2.1 7.4 8.8 12.5 16.5 12.5 0.7 0 1.3-0.1 2-0.1v45.5H17V35.1zM22.1 95.5c-2.8 0-5.1-2.3-5.1-5.1v-1h95.5v1c0 2.8-2.3 5.1-5.1 5.1H69.2c0 0 0 0 0 0h-9c0 0 0 0 0 0H22.1zM60.8 97h7.7l3.4 15.8H57.4L60.8 97zM79.9 116.9c0 0.9-0.7 1.6-1.6 1.6H51.2c-0.9 0-1.6-0.7-1.6-1.6v-1c0-0.9 0.7-1.6 1.6-1.6h5.3 16.4 5.3c0.9 0 1.6 0.7 1.6 1.6V116.9z" fill="#000000" data-fill-palette-color="accent"></path><path d="M83.4 54.1L83.4 54.1c-2.6 2.5-2.6 6.6-0.1 9.2 1.3 1.3 3 2 4.6 2 1.6 0 3.3-0.6 4.5-1.8 2.6-2.5 2.6-6.6 0.1-9.2C90.1 51.6 86 51.6 83.4 54.1zM91.4 62.3c-2 1.9-5.1 1.9-7-0.1-1.9-2-1.9-5.1 0.1-7 2-1.9 5.1-1.9 7 0.1C93.4 57.2 93.4 60.4 91.4 62.3z" fill="#000000" data-fill-palette-color="accent"></path><path d="M104.3 54.5c-0.1-0.4-0.5-0.6-0.9-0.5L99 55c-0.5-1.5-1.2-2.8-2.3-4l3.2-3.2c0.3-0.3 0.3-0.8 0-1.1-0.3-0.3-0.8-0.3-1.1 0l-3.2 3.2c-1.2-1.1-2.6-1.8-4.1-2.3l1.1-4.3c0.1-0.4-0.1-0.8-0.5-0.9-0.4-0.1-0.8 0.1-0.9 0.5l-1.1 4.3c-1.5-0.3-3-0.3-4.5 0L84.4 43c-0.1-0.4-0.5-0.6-0.9-0.5-0.4 0.1-0.6 0.5-0.5 0.9l1.2 4.3c-1.4 0.5-2.7 1.2-3.9 2.3l-3.1-3.1c-0.3-0.3-0.8-0.3-1.1 0-0.3 0.3-0.3 0.8 0 1.1l3.1 3.1c-1 1.2-1.8 2.5-2.3 4l-4.2-1.1c-0.4-0.1-0.8 0.1-0.9 0.5-0.1 0.4 0.1 0.8 0.5 0.9l4.2 1.1c-0.3 1.5-0.3 3.1 0 4.6l-4.2 1.1c-0.4 0.1-0.6 0.5-0.5 0.9 0.1 0.3 0.4 0.6 0.7 0.6 0.1 0 0.1 0 0.2 0l4.2-1.1c0.4 1.1 0.9 2.1 1.5 3l-1.6 1.6c-0.6-0.2-1.2-0.1-1.7 0.3L64.7 77.8c-1 1-1 2.7 0 3.7l0.5 0.5c0.5 0.5 1.2 0.8 1.8 0.8 0.7 0 1.3-0.3 1.8-0.8l10.4-10.4c0.3-0.3 0.5-0.7 0.5-1.1 0-0.2 0-0.4-0.1-0.6l1.6-1.6c0.9 0.7 2 1.2 3 1.5L83.1 74c-0.1 0.4 0.1 0.8 0.5 0.9 0.1 0 0.1 0 0.2 0 0.3 0 0.6-0.2 0.7-0.6l1.1-4.2c0.7 0.1 1.5 0.2 2.3 0.2 0.8 0 1.6-0.1 2.3-0.2l1.1 4.2c0.1 0.3 0.4 0.6 0.7 0.6 0.1 0 0.1 0 0.2 0 0.4-0.1 0.6-0.5 0.5-0.9l-1.1-4.2c1.4-0.5 2.8-1.2 3.9-2.3l3.1 3.1c0.1 0.1 0.3 0.2 0.5 0.2 0.2 0 0.4-0.1 0.5-0.2 0.3-0.3 0.3-0.8 0-1.1l-3.1-3.1c1-1.2 1.8-2.5 2.3-3.9l4.3 1.2c0.1 0 0.1 0 0.2 0 0.3 0 0.6-0.2 0.7-0.6 0.1-0.4-0.1-0.8-0.5-0.9L99.4 61c0.3-1.5 0.3-3 0-4.5l4.3-1.1C104.1 55.3 104.4 54.9 104.3 54.5zM67.8 80.9c-0.4 0.4-1.1 0.4-1.6 0l-0.5-0.5c-0.4-0.4-0.4-1.1 0-1.6l10.5-10.4 2 2L67.8 80.9zM78.6 68.7L77.9 68l1.4-1.4 0.7 0.7L78.6 68.7zM95 66c-4 3.9-10.5 3.8-14.4-0.2-3.9-4-3.8-10.5 0.2-14.4 4-3.9 10.5-3.8 14.4 0.2C99.1 55.6 99.1 62.1 95 66z" fill="#000000" data-fill-palette-color="accent"></path><path d="M110.4 27.4c0.1 0 0.1 0 0.2 0l2 4c0.1 0.3 0.4 0.4 0.7 0.4 0.1 0 0.2 0 0.3-0.1 0.4-0.2 0.5-0.6 0.3-1l-2-4c0 0 0.1-0.1 0.1-0.1 0-0.1 0.1-0.1 0.1-0.2 0.1-0.1 0.1-0.2 0.2-0.4 0-0.1 0.1-0.1 0.1-0.2 0.1-0.2 0.1-0.4 0.1-0.6 0 0 0-0.1 0-0.1l8.1-3.7c0.4-0.2 0.5-0.6 0.4-1-0.2-0.4-0.6-0.5-1-0.4l-8.1 3.7c-0.4-0.4-0.9-0.6-1.5-0.6-1.2 0-2.1 0.9-2.1 2.1C108.3 26.5 109.2 27.4 110.4 27.4z" fill="#000000" data-fill-palette-color="accent"></path><path d="M110.4 14.2c0.4 0 0.8-0.3 0.8-0.8v-1.8c0-0.4-0.3-0.8-0.8-0.8-0.4 0-0.8 0.3-0.8 0.8v1.8C109.6 13.9 110 14.2 110.4 14.2z" fill="#000000" data-fill-palette-color="accent"></path><path d="M96.7 26.1h1.8c0.4 0 0.8-0.3 0.8-0.8 0-0.4-0.3-0.8-0.8-0.8h-1.8c-0.4 0-0.8 0.3-0.8 0.8C96 25.7 96.3 26.1 96.7 26.1z" fill="#000000" data-fill-palette-color="accent"></path><path d="M110.4 36.3c-0.4 0-0.8 0.3-0.8 0.8v1.8c0 0.4 0.3 0.8 0.8 0.8 0.4 0 0.8-0.3 0.8-0.8v-1.8C111.1 36.7 110.8 36.3 110.4 36.3z" fill="#000000" data-fill-palette-color="accent"></path><path d="M122.2 26.1h1.8c0.4 0 0.8-0.3 0.8-0.8 0-0.4-0.3-0.8-0.8-0.8h-1.8c-0.4 0-0.8 0.3-0.8 0.8C121.4 25.7 121.8 26.1 122.2 26.1z" fill="#000000" data-fill-palette-color="accent"></path><path d="M58.3 63.1H23.5c-0.4 0-0.8 0.3-0.8 0.8 0 0.4 0.3 0.8 0.8 0.8h34.9c0.4 0 0.8-0.3 0.8-0.8C59.1 63.4 58.7 63.1 58.3 63.1z" fill="#000000" data-fill-palette-color="accent"></path><path d="M58.3 68.9H23.5c-0.4 0-0.8 0.3-0.8 0.8 0 0.4 0.3 0.8 0.8 0.8h34.9c0.4 0 0.8-0.3 0.8-0.8C59.1 69.2 58.7 68.9 58.3 68.9z" fill="#000000" data-fill-palette-color="accent"></path><path d="M58.3 74.6H23.5c-0.4 0-0.8 0.3-0.8 0.8 0 0.4 0.3 0.8 0.8 0.8h34.9c0.4 0 0.8-0.3 0.8-0.8C59.1 75 58.7 74.6 58.3 74.6z" fill="#000000" data-fill-palette-color="accent"></path><path d="M47.8 80.4H23.5c-0.4 0-0.8 0.3-0.8 0.8 0 0.4 0.3 0.8 0.8 0.8h24.3c0.4 0 0.8-0.3 0.8-0.8C48.5 80.7 48.2 80.4 47.8 80.4z" fill="#000000" data-fill-palette-color="accent"></path><path d="M36.3 27.9H54c0.4 0 0.8-0.3 0.8-0.8 0-0.4-0.3-0.8-0.8-0.8H36.3c-0.4 0-0.8 0.3-0.8 0.8C35.5 27.6 35.9 27.9 36.3 27.9z" fill="#000000" data-fill-palette-color="accent"></path><path d="M36.3 33.7H54c0.4 0 0.8-0.3 0.8-0.8 0-0.4-0.3-0.8-0.8-0.8H36.3c-0.4 0-0.8 0.3-0.8 0.8C35.5 33.4 35.9 33.7 36.3 33.7z" fill="#000000" data-fill-palette-color="accent"></path><path d="M36.3 39.5H54c0.4 0 0.8-0.3 0.8-0.8 0-0.4-0.3-0.8-0.8-0.8H36.3c-0.4 0-0.8 0.3-0.8 0.8C35.5 39.1 35.9 39.5 36.3 39.5z" fill="#000000" data-fill-palette-color="accent"></path><path d="M36.3 45.2h12.4c0.4 0 0.8-0.3 0.8-0.8 0-0.4-0.3-0.8-0.8-0.8H36.3c-0.4 0-0.8 0.3-0.8 0.8C35.5 44.9 35.9 45.2 36.3 45.2z" fill="#000000" data-fill-palette-color="accent"></path></g></svg></g></svg></g></svg></g><defs></defs></svg><rect width="395.52" height="130.55972219268895" fill="none" stroke="none" visibility="hidden"></rect></g></svg></g></svg>